<svg xmlns="http://www.w3.org/2000/svg" xmlns:xlink="http://www.w3.org/1999/xlink" viewBox="0,0,256,256" width="100px" height="100px" fill-rule="nonzero"><g fill="#cecfc8" fill-rule="nonzero" stroke="none" stroke-width="1" stroke-linecap="butt" stroke-linejoin="miter" stroke-miterlimit="10" stroke-dasharray="" stroke-dashoffset="0" font-family="none" font-weight="none" font-size="none" text-anchor="none" style="mix-blend-mode: normal"><g transform="scale(5.12,5.12)"><path d="M6,4c-1.09306,0 -2,0.90694 -2,2v38c0,1.09306 0.90694,2 2,2h38c1.09306,0 2,-0.90694 2,-2v-38c0,-1.09306 -0.90694,-2 -2,-2zM6,6h38v38h-38zM29,14c-3.01,0 -5.7307,1.20992 -7.7207,3.16992c-0.58,-0.11 -1.1693,-0.16992 -1.7793,-0.16992c-5.24,0 -9.5,4.26 -9.5,9.5c0,5.24 4.26,9.5 9.5,9.5h4.5h5c6.07,0 11,-4.93 11,-11c0,-6.07 -4.93,-11 -11,-11zM29,16c4.96,0 9,4.04 9,9c0,4.96 -4.04,9 -9,9c-1.44,0 -2.70008,-0.37094 -3.83008,-0.96094c-1.56,-0.81 -2.88086,-2.05867 -4.13086,-3.38867l-1.04883,-1.14062c-0.56,-0.61 -1.12117,-1.22883 -1.70117,-1.79883c-0.39,-0.39 -0.39,-1.03188 0,-1.42188c0.39,-0.39 1.03188,-0.39 1.42188,0c0.59,0.6 1.17,1.23109 1.75,1.87109c2.28,2.49 4.42906,4.83984 7.53906,4.83984c3.86,0 7,-3.14 7,-7c0,-3.86 -3.14,-7 -7,-7c-1.37,0 -2.68078,0.39086 -3.80078,1.13086c-0.56,-0.43 -1.16836,-0.83016 -1.81836,-1.16016c1.59,-1.27 3.55914,-1.9707 5.61914,-1.9707zM19.5,19c1.17,0 2.22922,0.34086 3.19922,0.88086c0.52,0.28 1.00094,0.60852 1.46094,0.97852c1,0.78 1.88945,1.70078 2.68945,2.55078c0.29,0.3 0.58133,0.59891 0.86133,0.87891c0.39,0.39 0.39,1.03188 0,1.42188c-0.39,0.39 -1.03188,0.39 -1.42188,0c-0.29,-0.29 -0.57867,-0.60188 -0.88867,-0.92188c-1.7,-1.78 -3.62039,-3.78906 -5.90039,-3.78906c-3.03,0 -5.5,2.47 -5.5,5.5c0,3.03 2.47,5.5 5.5,5.5c0.32,0 0.63922,-0.02984 0.94922,-0.08984c0.54,0.54 1.13148,1.08008 1.77148,1.58008c-0.86,0.34 -1.7807,0.50977 -2.7207,0.50977c-4.14,0 -7.5,-3.36 -7.5,-7.5c0,-4.14 3.36,-7.5 7.5,-7.5z"></path></g></g></svg>