<svg xmlns="http://www.w3.org/2000/svg" xmlns:xlink="http://www.w3.org/1999/xlink" viewBox="0,0,256,256" width="100px" height="100px" fill-rule="nonzero"><g fill="#cecfc8" fill-rule="nonzero" stroke="none" stroke-width="1" stroke-linecap="butt" stroke-linejoin="miter" stroke-miterlimit="10" stroke-dasharray="" stroke-dashoffset="0" font-family="none" font-weight="none" font-size="none" text-anchor="none" style="mix-blend-mode: normal"><g transform="scale(5.12,5.12)"><path d="M15.5,1c-0.15625,0.01563 -0.30469,0.07031 -0.4375,0.15625l-14.59375,9.40625c-0.26953,0.17578 -0.4375,0.47266 -0.44922,0.79688c-0.01172,0.32031 0.13281,0.62891 0.38672,0.82813l8.9375,6.78125l-8.9375,6.71875c-0.27734,0.19922 -0.4375,0.52734 -0.41797,0.87109c0.01953,0.33984 0.21094,0.64844 0.51172,0.81641l8.5,5v6.71875c-0.00391,0.33594 0.16016,0.65234 0.4375,0.84375l15,9.90625c0.33984,0.23047 0.78516,0.23047 1.125,0l15,-9.8125c0.27734,-0.19141 0.44141,-0.50781 0.4375,-0.84375v-6.75l8.5,-5.09375c0.26953,-0.16406 0.44531,-0.44531 0.47656,-0.75781c0.03125,-0.3125 -0.08594,-0.625 -0.32031,-0.83594l-8.40625,-7.125l8.375,-6.84375c0.25,-0.20312 0.39063,-0.51562 0.37109,-0.83594c-0.01953,-0.32422 -0.19141,-0.61719 -0.46484,-0.78906l-14.1875,-9c-0.20312,-0.13281 -0.44531,-0.1875 -0.6875,-0.15625c-0.18359,0.02344 -0.35547,0.10156 -0.5,0.21875l-9.125,7.59375l-8.78125,-7.5625c-0.20312,-0.18359 -0.47656,-0.27344 -0.75,-0.25zM15.53125,3.25l7.8125,6.71875l-12.3125,7.8125l-8.28125,-6.3125zM34.875,3.25l12.40625,7.84375l-7.6875,6.28125l-12.84375,-7.4375zM25,11.28125l12.75,7.34375l-12.78125,8l-12.09375,-7.625zM39.59375,19.8125l7.71875,6.5625l-7.625,4.5625l-0.09375,0.03125c-0.08984,0.03906 -0.17578,0.09375 -0.25,0.15625l-4.65625,2.78125l-7.9375,-6.03125zM11.0625,20.21875l12.1875,7.65625l-7.71875,6.03125l-12.71875,-7.5zM25.03125,29.0625l8.96875,6.84375c0.32813,0.25 0.77344,0.27344 1.125,0.0625l3.875,-2.3125v5l-14,9.125l-14,-9.25v-4.96875l4.09375,2.40625c0.35938,0.20313 0.80469,0.16797 1.125,-0.09375z"></path></g></g></svg>