<svg xmlns="http://www.w3.org/2000/svg" xmlns:xlink="http://www.w3.org/1999/xlink" viewBox="0,0,256,256" width="100px" height="100px" fill-rule="nonzero"><g fill="#cecfc8" fill-rule="nonzero" stroke="none" stroke-width="1" stroke-linecap="butt" stroke-linejoin="miter" stroke-miterlimit="10" stroke-dasharray="" stroke-dashoffset="0" font-family="none" font-weight="none" font-size="none" text-anchor="none" style="mix-blend-mode: normal"><g transform="scale(5.12,5.12)"><path d="M22.74023,2.03711c-0.73381,0.00448 -1.46012,0.23703 -2.12109,0.61914c-0.8813,0.50948 -1.68518,1.27757 -2.43555,2.24219c-1.50074,1.92923 -2.78688,4.66144 -3.66211,7.85547l0.08984,0.02539l-5.47461,1.7832c-0.3668,0.11966 -0.63206,0.43964 -0.68164,0.82227l-3.44727,26.81055c-0.06712,0.52434 0.28542,1.01036 0.80469,1.10938l24.58398,4.67773c0.07276,0.01335 0.14678,0.0186 0.2207,0.01563c0.08715,0.0042 0.17448,-0.00302 0.25977,-0.02148l13.33984,-2.95312c0.51005,-0.1132 0.84702,-0.59993 0.77344,-1.11719c0,0 -1.16823,-8.10569 -2.33984,-16.24023c-0.58581,-4.06727 -1.17356,-8.14268 -1.61523,-11.21484c-0.22084,-1.53608 -0.40501,-2.82196 -0.53516,-3.73047c-0.06508,-0.45426 -0.11682,-0.81285 -0.15234,-1.0625c-0.01776,-0.12482 -0.0316,-0.22395 -0.04102,-0.29101c-0.0094,-0.06707 -0.02221,-0.17785 -0.01172,-0.08008c-0.011,-0.10106 -0.03735,-0.19985 -0.07812,-0.29297c-0.22742,-0.52173 -0.71052,-0.82917 -1.02148,-0.93555c-0.10432,-0.03599 -0.21387,-0.05447 -0.32422,-0.05469c0.123,0 -0.02351,-0.00097 -0.125,-0.00781c-0.10148,-0.00684 -0.24149,-0.01723 -0.40625,-0.0293c-0.32951,-0.02413 -0.75713,-0.05751 -1.17969,-0.08984c-0.6575,-0.05031 -1.04622,-0.07974 -1.30078,-0.09961c-0.17882,-0.18308 -0.44657,-0.45918 -0.92187,-0.94141c-0.30591,-0.31036 -0.62044,-0.62916 -0.87891,-0.88672c-0.23068,-0.22987 -0.363,-0.36142 -0.52148,-0.5c-0.21549,-0.21632 -0.46377,-0.36844 -0.77539,-0.42383c-0.00062,-0.00011 -0.00134,0.00011 -0.00195,0c-0.06589,-0.01657 -0.13329,-0.02639 -0.20117,-0.0293c-0.08529,-0.00305 -0.17062,0.00482 -0.25391,0.02344c-0.0323,0.00688 -0.06424,0.01535 -0.0957,0.02539c-0.00522,0.00126 -0.01043,0.00256 -0.01562,0.00391l-1.79492,0.58594c-0.27013,-1.03045 -0.64022,-1.94249 -1.15625,-2.68555c-0.59197,-0.85242 -1.40908,-1.50771 -2.40234,-1.7207c-0.47427,-0.10153 -0.94843,-0.06841 -1.4043,0.04688c-0.5397,-0.57704 -1.19222,-0.99931 -1.96094,-1.16406c-0.24403,-0.05221 -0.48977,-0.07571 -0.73437,-0.07422zM22.74023,4.0332c0.10883,-0.00016 0.21271,0.01155 0.31445,0.0332c0.17339,0.03716 0.34568,0.12126 0.51562,0.23047c-0.42966,0.36424 -0.83745,0.79063 -1.22852,1.2793c-1.18526,1.48109 -2.23667,3.4891 -3.12109,5.70117l-2.37891,0.77539c0.79381,-2.44012 1.82837,-4.52257 2.91992,-5.92578c0.63701,-0.81889 1.2872,-1.40946 1.85938,-1.74023c0.42857,-0.24776 0.79264,-0.35303 1.11914,-0.35352zM26.64453,5.25781c0.32508,0.12721 0.64013,0.37852 0.95508,0.83203c0.35092,0.5053 0.66368,1.25142 0.89453,2.16406l-1.02734,0.33594c-0.15386,-1.24588 -0.42309,-2.36592 -0.82227,-3.33203zM24.75586,5.92188c0.36448,0.85095 0.63926,1.97564 0.77344,3.29883l-3.77344,1.23047c0.67415,-1.43642 1.41115,-2.70614 2.14648,-3.625c0.29106,-0.36371 0.57751,-0.65701 0.85352,-0.9043zM31.4375,9.40039l-1.72266,36.41602l-22.60352,-4.30078l3.24609,-25.24805zM33.4043,10.12891c0.03863,0.03914 0.07087,0.07226 0.10938,0.11133c0.60718,0.61602 1.17969,1.20313 1.17969,1.20313c0.16955,0.17384 0.39656,0.28006 0.63867,0.29883c0,0 0.8284,0.06407 1.67578,0.12891c0.42369,0.03242 0.85187,0.06541 1.18555,0.08984c0.07093,0.0052 0.11626,0.0073 0.17773,0.01172c0.03554,0.24967 0.08534,0.5908 0.14844,1.03125c0.13024,0.90916 0.31625,2.19617 0.53711,3.73242c0.44173,3.0725 1.02746,7.14749 1.61328,11.21484c1.1054,7.67486 2.0859,14.48202 2.20703,15.32227l-11.15625,2.4668zM22.76172,17.00391c-3.09605,0.0016 -5.53984,1.08168 -7.16016,2.76758c-1.62149,1.68712 -2.41406,3.93377 -2.41406,6.18945c0,2.7385 1.45921,4.36362 2.6875,5.41602c0.61415,0.5262 1.16554,0.95453 1.50586,1.3418c0.34032,0.38726 0.48242,0.66208 0.48242,1.12695c0,0.12368 -0.06386,0.34047 -0.16797,0.46484c-0.10411,0.12438 -0.2042,0.21289 -0.54883,0.21289c-0.56982,0 -1.47393,-0.37794 -2.17578,-0.81445c-0.70185,-0.43651 -1.18945,-0.86719 -1.18945,-0.86719c-0.25594,-0.22621 -0.60963,-0.30615 -0.93798,-0.212c-0.32835,0.09415 -0.58594,0.34938 -0.68311,0.67684l-1.11914,3.76367c-0.09253,0.31177 -0.0277,0.64906 0.17383,0.9043c0,0 2.45171,3.02624 7.05078,3.02734c1.98595,0 3.78763,-0.79121 5.04688,-2.18359c1.25925,-1.39238 1.9707,-3.35391 1.9707,-5.63281c0,-2.99415 -1.71761,-4.87658 -3.23047,-6.09766c-0.75643,-0.61054 -1.4717,-1.09924 -1.92773,-1.50586c-0.45603,-0.40662 -0.56055,-0.63007 -0.56055,-0.76367c0,-0.10112 0.02597,-0.37703 0.17969,-0.58008c0.15372,-0.20304 0.44246,-0.48047 1.50781,-0.48047c1.40986,0 2.67773,0.66602 2.67773,0.66602c0.26131,0.14227 0.57241,0.1608 0.84876,0.05056c0.27636,-0.11024 0.48928,-0.33781 0.58092,-0.62087l1.5918,-4.9082c0.14317,-0.44163 -0.0364,-0.92371 -0.43359,-1.16406c0,0 -0.41365,-0.24032 -1.04492,-0.42969c-0.62943,-0.18881 -1.54118,-0.36079 -2.71094,-0.34766zM22.7793,19c0.8967,-0.0109 1.51867,0.12213 1.9707,0.24805l-0.95898,2.95898c-0.65431,-0.2243 -1.54251,-0.44922 -2.53906,-0.44922c-1.49565,0 -2.55253,0.54823 -3.10156,1.27344c-0.54903,0.72521 -0.58594,1.48123 -0.58594,1.78711c0,0.9854 0.61223,1.7083 1.22852,2.25781c0.61628,0.54951 1.33058,1.0249 2.00391,1.56836c1.34665,1.08692 2.48633,2.27116 2.48633,4.54102c0,1.8671 -0.56762,3.3119 -1.45312,4.29102c-0.8855,0.97912 -2.0934,1.52539 -3.56445,1.52539c-3.25656,-0.00078 -4.72486,-1.51457 -5.12695,-1.9668l0.53711,-1.80469c0.12491,0.08486 0.09854,0.08887 0.23828,0.17578c0.85215,0.52999 1.96224,1.11719 3.23242,1.11719c0.87337,0 1.63264,-0.39281 2.08203,-0.92969c0.44939,-0.53687 0.63477,-1.15873 0.63477,-1.74805c0,-0.99763 -0.44423,-1.83706 -0.98047,-2.44727c-0.53624,-0.6102 -1.15243,-1.06388 -1.70703,-1.53906c-1.10921,-0.95036 -1.98828,-1.80494 -1.98828,-3.89844c0,-1.78832 0.62541,-3.52086 1.85742,-4.80273c1.23201,-1.28188 3.07791,-2.15625 5.72266,-2.15625c0.00391,-0.00063 0.00782,-0.00128 0.01172,-0.00195z"></path></g></g></svg>