<svg xmlns="http://www.w3.org/2000/svg" xmlns:xlink="http://www.w3.org/1999/xlink" viewBox="0,0,256,256" width="100px" height="100px" fill-rule="nonzero"><g fill="#cecfc8" fill-rule="nonzero" stroke="none" stroke-width="1" stroke-linecap="butt" stroke-linejoin="miter" stroke-miterlimit="10" stroke-dasharray="" stroke-dashoffset="0" font-family="none" font-weight="none" font-size="none" text-anchor="none" style="mix-blend-mode: normal"><g transform="scale(8.53333,8.53333)"><path d="M4,5c-1.105,0 -2,0.895 -2,2v16c0,1.105 0.895,2 2,2h22c1.105,0 2,-0.895 2,-2v-16c0,-1.105 -0.895,-2 -2,-2zM15.50586,10.60742c0.45,0 0.8125,0.36136 0.8125,0.81836c0,0.45 -0.3625,0.81836 -0.8125,0.81836c-0.457,0 -0.82031,-0.36836 -0.82031,-0.81836c0,-0.456 0.36331,-0.81836 0.82031,-0.81836zM9.85352,11.33008v1.39648h0.99023l-0.1875,1.15234h-0.80273v2.03125c0,0.357 0.1315,0.51367 0.4375,0.51367c0.144,0 0.35522,-0.04531 0.44922,-0.07031v1.21875c-0.169,0.044 -0.4125,0.11328 -0.8125,0.11328c-0.519,0 -0.88753,-0.10064 -1.14453,-0.30664c-0.307,-0.25 -0.45703,-0.65714 -0.45703,-1.24414v-2.25781h-0.64062l0.17578,-1.07422l0.4668,-0.07617l0.19336,-1.17773zM5.83203,12.63281c0.744,0 1.28292,0.20703 1.54492,0.33203l-0.1875,1.15625c-0.331,-0.162 -0.8132,-0.34375 -1.2832,-0.34375c-0.257,0 -0.39844,0.10039 -0.39844,0.27539c0,0.207 0.25003,0.33881 0.70703,0.50781c0.857,0.306 1.38672,0.66811 1.38672,1.53711c0,0.524 -0.18125,0.93103 -0.53125,1.20703c-0.312,0.251 -0.77603,0.38086 -1.33203,0.38086c-0.7,0 -1.37528,-0.21197 -1.73828,-0.41797l0.1875,-1.16992c0.425,0.25 1.07575,0.44531 1.46875,0.44531c0.319,0 0.49414,-0.11917 0.49414,-0.32617c0,-0.213 -0.18061,-0.34897 -0.72461,-0.54297c-0.844,-0.306 -1.36328,-0.67048 -1.36328,-1.52148c0,-0.469 0.16914,-0.856 0.49414,-1.125c0.313,-0.256 0.74939,-0.39453 1.27539,-0.39453zM19.66406,12.63477c0.488,0 0.86853,0.1733 1.14453,0.5293c0.313,0.4 0.4697,1.02656 0.4707,1.85156c0,0.93 -0.21381,1.63675 -0.63281,2.09375c-0.438,0.475 -1.00067,0.57617 -1.38867,0.57617c-0.219,0 -0.46317,-0.03633 -0.70117,-0.11133v1.5625l-1.55078,0.25781v-6.66601h1.36328l0.08203,0.48828c0.369,-0.394 0.76289,-0.58203 1.21289,-0.58203zM24.01172,12.63477c0.644,0 1.15128,0.22411 1.48828,0.66211c0.331,0.431 0.5,1.04431 0.5,1.82031c0,0.111 -0.01353,0.46211 -0.01953,0.53711h-2.57031c0.031,0.319 0.12511,0.54364 0.28711,0.68164c0.15,0.131 0.3572,0.19336 0.6582,0.19336c0.5,0 0.94417,-0.11136 1.32617,-0.31836l0.16797,1.0625c-0.388,0.256 -1.00011,0.41406 -1.66211,0.41406c-0.719,0 -1.27706,-0.18945 -1.66406,-0.56445c-0.432,-0.419 -0.65039,-1.07322 -0.65039,-1.94922c0,-1.564 0.81867,-2.53906 2.13867,-2.53906zM13.82422,12.6582c0.094,0 0.18792,0.01311 0.29492,0.03711v1.43359h-0.00195c-0.106,-0.019 -0.19244,-0.01953 -0.27344,-0.01953c-0.375,0 -0.6527,0.08622 -0.8457,0.32422v3.1582h-1.55078v-4.86523h1.35742l0.09375,0.57617c0.137,-0.413 0.48778,-0.64453 0.92578,-0.64453zM14.72266,12.72656h1.55664v4.86524h-1.55664zM23.98633,13.68359c-0.356,0 -0.54389,0.32553 -0.58789,1.01953h1.14453c-0.024,-0.688 -0.20564,-1.01953 -0.55664,-1.01953zM19.14453,13.81445c-0.088,0 -0.32489,0.03164 -0.58789,0.30664v2.31445c0.125,0.062 0.26392,0.09375 0.41992,0.09375c0.225,0 0.41797,-0.12628 0.54297,-0.36328c0.144,-0.25 0.21389,-0.61875 0.21289,-1.09375c0,-0.831 -0.19489,-1.25781 -0.58789,-1.25781z"></path></g></g></svg>